<svg id="Icon.Sitelogo-desktop-white" data-name="Icon.Logo / Subtitle" xmlns="http://www.w3.org/2000/svg" width="140" height="36" viewBox="0 0 140 36">
  <rect id="Surface" width="140" height="36" fill="none"/>
  <g id="Tagline" transform="translate(6 29.229)">
    <path id="Path_6757" data-name="Path 6757" d="M23.49,76.063h1.352l2.126,3.156h.016V76.063h1.289v5.585h-1.3l-2.181-3.282H24.78v3.282H23.49Z" transform="translate(-23.49 -75.969)" fill="#ffffff"/>
    <path id="Path_6758" data-name="Path 6758" d="M35.413,76.063h4.1V77.2h-2.7v1.065h2.275v1.128H36.812V80.5h2.72v1.143H35.413Z" transform="translate(-29.13 -75.969)" fill="#ffffff"/>
    <path id="Path_6759" data-name="Path 6759" d="M46.809,77.183H45.23v-1.12h4.557v1.12H48.208v4.464h-1.4Z" transform="translate(-33.774 -75.969)" fill="#ffffff"/>
    <path id="Path_6760" data-name="Path 6760" d="M55.4,76.063h1.391l.774,3.407h.016l.86-3.407h1.227l.821,3.415h.016l.766-3.415h1.337l-1.407,5.6H59.9l-.891-3.532h-.023l-.907,3.532H56.811Z" transform="translate(-38.586 -75.969)" fill="#ffffff"/>
    <path id="Path_6761" data-name="Path 6761" d="M70.249,79.613V78a2.388,2.388,0,0,1,4.744-.008v1.551a2.146,2.146,0,0,1-2.36,2.114C71.382,81.657,70.249,81.054,70.249,79.613Zm3.345-.023V77.937a.908.908,0,0,0-.985-.909.873.873,0,0,0-.962.916v1.638a.975.975,0,0,0,1.947.007Z" transform="translate(-45.608 -75.885)" fill="#ffffff"/>
    <path id="Path_6762" data-name="Path 6762" d="M81.682,76.063h2.439a1.759,1.759,0,0,1,1.993,1.762,1.711,1.711,0,0,1-1.047,1.645l1.274,2.177H84.816l-1.1-1.974h-.633v1.974h-1.4Zm2.259,2.577a.723.723,0,0,0,.813-.744c0-.477-.313-.736-.813-.736h-.86v1.48Z" transform="translate(-51.017 -75.969)" fill="#ffffff"/>
    <path id="Path_6763" data-name="Path 6763" d="M92.611,76.063h1.4v2.53l1.931-2.53h1.485L95.66,78.3l1.868,3.344H96l-1.329-2.381-.665.752v1.629h-1.4Z" transform="translate(-56.185 -75.969)" fill="#ffffff"/>
    <path id="Path_6764" data-name="Path 6764" d="M108.287,76.063h4.041V77.2h-2.642v1.129h2.181v1.135h-2.181v2.185h-1.4Z" transform="translate(-63.601 -75.969)" fill="#ffffff"/>
    <path id="Path_6765" data-name="Path 6765" d="M117.659,79.613V78a2.388,2.388,0,0,1,4.745-.008v1.551a2.146,2.146,0,0,1-2.36,2.114C118.793,81.657,117.659,81.054,117.659,79.613ZM121,79.59V77.937a.908.908,0,0,0-.985-.909.873.873,0,0,0-.961.916v1.638A.975.975,0,0,0,121,79.59Z" transform="translate(-68.033 -75.885)" fill="#ffffff"/>
    <path id="Path_6766" data-name="Path 6766" d="M129.093,76.063h2.438a1.759,1.759,0,0,1,1.993,1.762,1.712,1.712,0,0,1-1.047,1.645l1.274,2.177h-1.524l-1.1-1.974h-.633v1.974h-1.4Zm2.259,2.577a.723.723,0,0,0,.813-.744c0-.477-.313-.736-.813-.736h-.86v1.48Z" transform="translate(-73.442 -75.969)" fill="#ffffff"/>
    <path id="Path_6767" data-name="Path 6767" d="M144.056,79.644V77.937a2.1,2.1,0,0,1,2.345-2.052c1.078,0,2.282.509,2.282,1.809v.2H147.37v-.109a.825.825,0,0,0-.93-.791.889.889,0,0,0-.985.893v1.723a.9.9,0,0,0,.985.924.8.8,0,0,0,.906-.822v-.142h-1.126V78.54h2.462v1.284c0,1.284-1.173,1.832-2.251,1.832C145.2,81.657,144.056,81.039,144.056,79.644Z" transform="translate(-80.519 -75.885)" fill="#ffffff"/>
    <path id="Path_6768" data-name="Path 6768" d="M155.342,76.063h2.439a1.76,1.76,0,0,1,1.993,1.762,1.712,1.712,0,0,1-1.047,1.645L160,81.648h-1.524l-1.1-1.974h-.633v1.974h-1.4ZM157.6,78.64a.723.723,0,0,0,.813-.744c0-.477-.313-.736-.813-.736h-.86v1.48Z" transform="translate(-85.857 -75.969)" fill="#ffffff"/>
    <path id="Path_6769" data-name="Path 6769" d="M166.2,76.063h4.1V77.2h-2.7v1.065h2.275v1.128H167.6V80.5h2.72v1.143H166.2Z" transform="translate(-90.992 -75.969)" fill="#ffffff"/>
    <path id="Path_6770" data-name="Path 6770" d="M177.68,76.048h1.493l1.954,5.592H179.7l-.336-1.042h-1.993l-.344,1.042H175.7Zm1.344,3.454-.641-2.021h-.024l-.648,2.021Z" transform="translate(-95.489 -75.962)" fill="#ffffff"/>
    <path id="Path_6771" data-name="Path 6771" d="M187.4,77.183h-1.579v-1.12h4.557v1.12h-1.579v4.464h-1.4Z" transform="translate(-100.272 -75.969)" fill="#ffffff"/>
    <path id="Path_6772" data-name="Path 6772" d="M196.613,76.063h4.1V77.2h-2.7v1.065h2.274v1.128h-2.274V80.5h2.72v1.143h-4.12Z" transform="translate(-105.379 -75.969)" fill="#ffffff"/>
    <path id="Path_6773" data-name="Path 6773" d="M206.964,76.063H209.4a1.76,1.76,0,0,1,1.993,1.762,1.712,1.712,0,0,1-1.047,1.645l1.274,2.177H210.1L209,79.674h-.633v1.974h-1.4Zm2.259,2.577a.723.723,0,0,0,.813-.744c0-.477-.312-.736-.813-.736h-.86v1.48Z" transform="translate(-110.275 -75.969)" fill="#ffffff"/>
    <path id="Path_6774" data-name="Path 6774" d="M221.927,79.644V77.937a2.1,2.1,0,0,1,2.345-2.052c1.079,0,2.282.509,2.282,1.809v.2h-1.313v-.109a.825.825,0,0,0-.931-.791.889.889,0,0,0-.984.893v1.723a.9.9,0,0,0,.984.924.8.8,0,0,0,.907-.822v-.142h-1.126V78.54h2.462v1.284c0,1.284-1.173,1.832-2.251,1.832C223.068,81.657,221.927,81.039,221.927,79.644Z" transform="translate(-117.352 -75.885)" fill="#ffffff"/>
    <path id="Path_6775" data-name="Path 6775" d="M232.871,79.613V78a2.388,2.388,0,0,1,4.745-.008v1.551a2.146,2.146,0,0,1-2.36,2.114C234,81.657,232.871,81.054,232.871,79.613Zm3.345-.023V77.937a.908.908,0,0,0-.984-.909.873.873,0,0,0-.962.916v1.638a.975.975,0,0,0,1.946.007Z" transform="translate(-122.53 -75.885)" fill="#ffffff"/>
    <path id="Path_6776" data-name="Path 6776" d="M243.891,79.613V78a2.388,2.388,0,0,1,4.745-.008v1.551a2.146,2.146,0,0,1-2.361,2.114C245.024,81.657,243.891,81.054,243.891,79.613Zm3.345-.023V77.937a.908.908,0,0,0-.984-.909.873.873,0,0,0-.961.916v1.638a.974.974,0,0,0,1.946.007Z" transform="translate(-127.742 -75.885)" fill="#ffffff"/>
    <path id="Path_6777" data-name="Path 6777" d="M255.1,76.063h2.329a2.013,2.013,0,0,1,2.275,1.966V79.6a2.052,2.052,0,0,1-2.267,2.044H255.1Zm2.251,4.441a.888.888,0,0,0,.954-.894V78.076a.9.9,0,0,0-.992-.869H256.5v3.3Z" transform="translate(-133.045 -75.969)" fill="#ffffff"/>
  </g>
  <g id="TraceLink" transform="translate(4)">
    <path id="Path_6750" data-name="Path 6750" d="M20.494,39.5V29.375H18.122v-3.34h2.372V20.7h4.192v5.337H28.5v3.34H24.686V38.5c0,1.309.687,1.687,1.65,1.687a11.289,11.289,0,0,0,2.165-.172V43.6a15.678,15.678,0,0,1-3.093.344C22.693,43.941,20.494,42.632,20.494,39.5Z" transform="translate(-18.122 -19.114)" fill="#ffffff"/>
    <path id="Path_6751" data-name="Path 6751" d="M65.248,43.134c0-3.409,3.093-5.44,6.5-5.44h4.674V36.075c0-1.859-1.237-2.652-3.368-2.652-1.821,0-3.162.62-3.162,1.756v.62h-3.78v-.482c0-3.857,3.677-5.165,6.976-5.165,3.917,0,7.526,1.309,7.526,5.613v8.574a20.066,20.066,0,0,0,.309,3.788H76.76c-.069-.276-.138-1.343-.172-1.619h-.069c-1.546,1.619-2.887,1.963-5.155,1.963C67.722,48.471,65.248,46.474,65.248,43.134Zm11.169-1.515v-.861H72.293c-1.787,0-2.956.62-2.956,2.169,0,1.481,1.2,2.239,3.162,2.239C75.867,45.166,76.417,43.513,76.417,41.619Z" transform="translate(-40.412 -23.575)" fill="#ffffff"/>
    <path id="Path_6752" data-name="Path 6752" d="M99.159,41.374V37.931c0-4.959,3.711-7.714,8.076-7.714,3.814,0,7.7,2.239,7.7,6.922v.344h-4.09v-.344a3.316,3.316,0,0,0-3.608-3.374,3.422,3.422,0,0,0-3.712,3.615v4.132c0,2.238,1.615,3.547,3.849,3.547a3.21,3.21,0,0,0,3.47-3.375v-.172h4.09v.172c0,4.683-3.746,6.887-7.56,6.887C103.042,48.571,99.159,46.057,99.159,41.374Z" transform="translate(-56.451 -23.606)" fill="#ffffff"/>
    <path id="Path_6753" data-name="Path 6753" d="M132.872,41.374V37.931c0-4.959,3.711-7.714,8.076-7.714,3.815,0,7.595,2.239,7.595,6.922v3.409H137.236v.964c0,2.238,1.821,3.547,4.055,3.547a4.948,4.948,0,0,0,3.815-2.272l3.231,1.859c-1.375,2.755-4.158,3.926-7.251,3.926C136.755,48.571,132.872,46.195,132.872,41.374Zm11.478-3.753v-.482a3.158,3.158,0,0,0-3.4-3.374,3.422,3.422,0,0,0-3.711,3.615v.241Z" transform="translate(-72.396 -23.606)" fill="#ffffff"/>
    <path id="Path_6754" data-name="Path 6754" d="M167.206,37.532V17.7H171.4V37.5a1.324,1.324,0,0,0,1.512,1.446,18,18,0,0,0,1.925-.138v3.2a14.424,14.424,0,0,1-3.368.482C167.309,42.491,167.206,39.116,167.206,37.532Z" transform="translate(-88.635 -17.698)" fill="#ffffff"/>
    <path id="Path_6755" data-name="Path 6755" d="M200.127,30.5h4.09v2.169h.069a5.924,5.924,0,0,1,4.983-2.514c3.952,0,6.151,2.479,6.151,6.68V48.127h-4.192V37.9c0-2.652-1.134-4.064-3.265-4.064-2.3,0-3.643,1.412-3.643,4.408v9.883h-4.192Z" transform="translate(-104.206 -23.575)" fill="#ffffff"/>
    <path id="Path_6756" data-name="Path 6756" d="M234.6,17.7h4.192l.034,14.187,6.427-7.266h4.983l-6.289,6.646,6.564,10.985H245.8L241.1,34.192l-2.3,2.479V42.25H234.6Z" transform="translate(-120.512 -17.698)" fill="#ffffff"/>
    <path id="Path_6778" data-name="Path 6778" d="M53.214,30.152a7.189,7.189,0,0,0-5.739,3.272h-.069V30.5h-4.09V48.127h4.192V39.105c0-3.272,2.371-5.1,5.533-5.1a9,9,0,0,1,1.379.072V30.221A7.68,7.68,0,0,0,53.214,30.152Z" transform="translate(-30.039 -23.575)" fill="#ffffff"/>
    <path id="Path_6779" data-name="Path 6779" d="M187.656,25.005a2.025,2.025,0,1,0-2.021-2.025A2.023,2.023,0,0,0,187.656,25.005Z" transform="translate(-97.352 -19.236)" fill="#ffffff"/>
    <path id="Path_6780" data-name="Path 6780" d="M187.212,30.217h-.642a2.44,2.44,0,0,0-2.43,2.435v7.9h1.29v7.61h2.922v-7.61h1.29v-7.9A2.44,2.44,0,0,0,187.212,30.217Z" transform="translate(-96.645 -23.606)" fill="#ffffff"/>
  </g>
</svg>